<?xml version="1.0" standalone="no"?>
<!DOCTYPE svg PUBLIC "-//W3C//DTD SVG 20010904//EN"
 "http://www.w3.org/TR/2001/REC-SVG-20010904/DTD/svg10.dtd">
<svg version="1.0" xmlns="http://www.w3.org/2000/svg"
 width="2048.000000pt" height="2048.000000pt" viewBox="0 0 2048.000000 2048.000000"
 preserveAspectRatio="xMidYMid meet">
<metadata>
Created by potrace 1.11, written by Peter Selinger 2001-2013
</metadata>
<g transform="translate(0.000000,2048.000000) scale(0.100000,-0.100000)"
fill="#000000" stroke="none">
<path d="M2645 20473 c-582 -53 -1129 -272 -1575 -631 -122 -98 -334 -310
-432 -432 -327 -406 -534 -887 -615 -1425 -17 -115 -18 -456 -18 -7745 0
-7289 1 -7630 18 -7745 98 -653 369 -1198 821 -1651 458 -458 1030 -739 1681
-826 148 -19 15281 -19 15430 0 650 87 1223 368 1681 826 450 451 709 967 822
1641 15 93 17 650 20 7670 2 5409 0 7607 -8 7698 -64 752 -432 1461 -1010
1946 -420 352 -880 561 -1440 654 l-135 22 -7600 1 c-4180 0 -7618 -1 -7640
-3z m6785 -7052 l0 -1358 -2369 5 -2369 5 -57 -113 c-77 -154 -131 -277 -170
-390 -155 -447 -205 -732 -205 -1174 1 -398 39 -653 157 -1026 57 -182 105
-304 195 -492 l71 -148 1044 0 1043 0 0 275 0 275 -855 0 -855 0 0 1110 0
1110 2185 0 2185 0 0 -2745 0 -2745 -3313 0 -3313 0 -105 123 c-796 923 -1322
2037 -1504 3182 -181 1147 -70 2325 315 3331 242 631 554 1192 953 1714 84
110 126 160 265 323 l84 97 3309 0 3309 0 0 -1359z m2435 1340 c778 -62 1339
-176 1930 -391 727 -264 1388 -637 2012 -1134 l168 -134 3 839 2 839 1480 0
1480 0 2 -4180 c2 -2299 3 -4271 3 -4382 l0 -203 -1477 -3 -1478 -2 0 97 c0
258 -33 692 -75 993 -146 1037 -562 2056 -1147 2805 -187 240 -357 427 -548
603 -333 308 -701 579 -1090 804 -152 88 -302 168 -315 168 -3 0 -5 -1231 -5
-2735 l0 -2735 -1485 0 -1485 0 0 4386 0 4386 943 -5 c567 -3 998 -9 1082 -16z"/>
</g>
</svg>
