<svg version="1" xmlns="http://www.w3.org/2000/svg" width="2730.667" height="2730.667" viewBox="0 0 2048.000000 2048.000000"><path d="M280.2 571.1c-.9.8-3.9 4.2-6.7 7.4-2.7 3.3-6.1 7.2-7.5 8.7-1.4 1.5-3 3.4-3.5 4.1-2 2.4-9 11.2-10 12.5-.5.7-2 2.4-3.2 3.7-1.3 1.3-2.3 2.8-2.3 3.4 0 .5-.4 1.1-.8 1.3-.5.1-4.4 5.2-8.8 11.3-4.3 6-8.1 11.2-8.4 11.5-1.1 1.1-12.6 18.6-13.2 20.2-.4 1-1.2 1.8-1.8 1.8-.5 0-1 .7-1 1.5s-.9 2.4-2 3.5-2 2.5-2 3c0 .6-1.8 3.8-4 7.1s-4 6.2-4 6.5c0 .3-3.5 6.3-7.7 13.1-.7 1.3-1.2 2.4-1.1 2.5.2.2-.7 1.8-2 3.5-1.3 1.8-2 3.3-1.6 3.3.3 0 .2.6-.4 1.2-2.9 3.6-10.9 19.6-22.6 45.1-2 4.3-3.6 8-3.6 8.1 0 .2-1 2.5-2.2 5.2-1.2 2.7-2.3 5.1-2.3 5.4-.1.3-.7 1.8-1.4 3.5-.7 1.6-2.6 6.6-4.2 11s-3.4 8.9-3.9 10c-1.4 3-7.3 20.8-7.3 22.2 0 .7-.3 1.3-.7 1.3-.4 0-.7.6-.8 1.2-.2 2.1-.7 4.2-1.4 5.3-.6 1-2 7.1-1.9 8 .1.3-.6 2.1-1.4 4.1-.8 2-1.3 4-1 4.4.3.5-.1 1.5-.9 2.3-.8.8-1.3 1.7-1.1 1.9.3.2-1.1 6.6-3 14.2s-3.7 15.2-3.9 17c-.2 1.7-.9 4.9-1.5 7.2-.6 2.2-1.3 5.6-1.5 7.5-.3 1.9-.5 3.4-.6 3.4-.1 0-.3 1.1-.5 2.5-.4 2.6-2 12.8-3.1 19.5-.4 2.2-.7 5.2-.7 6.7 0 1.6-.3 2.8-.6 2.8s-.6 1.7-.7 3.8c0 2-.4 6.6-.8 10.2-1 8.5-1.3 11.6-2.1 23-1.3 16.1-1.4 20.6-1.5 48.5 0 26.1.3 36.8 1.5 50.5.3 3.6.8 9.4 1 13 .7 7.9 1.2 12.7 2.1 20 .3 3 .8 7.1 1 9 .1 1.9.3 3.5.4 3.5.1 0 .3 1.3.6 3 .4 3.1 1.1 6.6 1.4 7.5.1.3.2 2 .2 3.7 0 1.8.5 3.3 1 3.3s.7.3.5.7c-.5.9 1.2 11.8 2.9 19.3.3 1.4.8 3.6 1.1 5 .2 1.4 1.6 7.2 2.9 13 2.3 9.5 3.3 13.7 3.8 16.5.1.5.4 1.4.7 2 .6 1 1.9 5.5 2.5 8.5.4 2.4 1.2 5.5 1.4 5.5.1 0 .3 1.1.6 2.4.2 1.4.9 3 1.5 3.8.6.7.9 1.3.6 1.3-.7 0 9.7 31 13.3 39.5.4 1.1 1.6 4 2.5 6.5 1.5 4.2 2.4 6.2 6 14.5.8 1.6 2 4.6 2.8 6.5 7.2 16.8 23 48.7 28.3 56.7.8 1.3 1.2 2.3.9 2.3-.4 0 .3 1.3 1.4 2.9 1.2 1.6 2.1 3.4 2.1 4 0 .6.5 1.1 1 1.1.6 0 1 .6 1 1.4 0 .8.6 2.1 1.3 2.8.6.7 4.5 6.7 8.5 13.3 9.9 16.3 9.5 15.7 11.3 17.7.9 1 2.2 3.1 3 4.6.8 1.5 1.9 3.2 2.4 3.9.6.6 2 2.7 3.3 4.5 3.3 4.8 10 14.1 11 15.3.4.5 2.1 2.8 3.7 5 4.9 6.4 5.9 7.7 8.3 10.2 1.2 1.3 2.2 2.7 2.2 3.1 0 .4 1.5 2.4 3.3 4.4 1.7 2 4.6 5.3 6.2 7.4 3.8 4.6 6.8 8.1 10.3 11.9 1.5 1.6 3.7 4.2 4.9 5.8l2.1 2.7 331.8-.2 331.8-.3.1-272.5c0-149.9-.1-273.5-.3-274.6l-.4-2.2H505.4v111.6l.1 111.7h8.8c4.9 0 9.1-.3 9.3-.7.3-.5 1.1-.5 1.7-.1 1.6 1 13.7 1.1 14.3.1.3-.5 1-.5 1.6-.1 1.7 1 9.8 1.1 10.4.1.3-.5 1.1-.5 1.7 0 1.4 1 8.7 1 10.4-.1.6-.4 1.4-.4 1.7.1.6 1 11.7.9 13.3-.1.6-.4 1.4-.4 1.7.1.6 1 10.7.9 12.3-.1.6-.4 1.4-.4 1.7.1.6 1 23.7.9 25.3-.1.6-.4 1.4-.4 1.7.1.6 1 12.7.9 14.3-.1.6-.4 1.4-.4 1.7.1.6 1 12.7.9 14.3-.1.6-.4 1.4-.4 1.7.1.6 1 12.7.9 14.3-.1.6-.4 1.4-.4 1.7.1.3.5 2.1.8 4 .7l3.6-.2v54.5l-104 .1H469l-1.7-3.2c-.9-1.8-1.8-3.4-1.8-3.7-.5-2-3-6-3.8-6-.6 0-.7-.3-.4-.6.4-.4 0-1.9-.8-3.3-1.3-2.4-6.4-13.7-8.4-18.6-.5-1.1-1.3-3.1-1.9-4.5-1.6-3.8-5.4-14.3-5.6-15.6-.1-.7-.7-1.8-1.4-2.6-.6-.8-1-1.7-.7-2 .3-.2-.8-4.7-2.4-9.9-4-12.8-5.8-19.9-6.6-25.4-.2-1.1-.4-2-.5-2-.1 0-.3-.7-.5-1.5-1.2-5-1.5-6.8-1.7-9.8-.1-1.7-.4-3.2-.7-3.2-.3 0-.7-1.5-.7-3.3-.1-1.7-.5-5.5-.9-8.2-.4-2.8-.8-7-1-9.5-.2-2.5-.4-4.5-.5-4.5-.1 0-.3-5.2-.6-11.5-.2-6.3-.4-11.5-.4-11.5-.2 0-.2-14.9 0-15.5 0-.3.3-4.8.6-10 .5-10.8.9-16.3 1.9-23.5.4-2.8.9-6.4 1-8 .2-1.7.4-3 .5-3 .1 0 .3-1.1.5-2.5s.9-5.2 1.5-8.5c.7-3.3 1.3-6.9 1.5-8 .2-1.1.4-2.1.5-2.3.3-.2.4-.6 1.4-5.7.4-2.2 1.4-5.8 2.1-8 2-6.2 6.9-21.9 7-22.5 0-.3.4-1.1.9-1.8.4-.7.6-1.6.2-1.9-.3-.3.2-1.2 1-2s1.2-1.9.9-2.4c-.4-.5-.2-.9.2-.9.5 0 .9-.8 1-1.9.2-2.2 11.3-27.4 15.3-34.7 1.6-2.9 2.6-5.5 2.3-5.8-.4-.3-.1-.6.5-.6s1.3-.8 1.6-1.8c.6-1.6 12.1-1.7 237.6-1.7 130.3.1 237-.1 237.1-.4.1-.3.2-61.5.2-135.9.1-89.5-.1-135.2-.8-135.3-.5-.1-149.4-.2-330.8-.2-298.1-.2-330 0-331.5 1.4zM985.8 569.8c-1.4.3-1.5 45.6-1.4 438.5l.1 438.2 147.9.3c87.9.1 148.2-.2 148.5-.7.3-.5.6-123.6.6-273.5s.1-272.6.2-272.6c.8 0 25.5 13.3 33.5 18.1 5.4 3.2 9.8 5.5 9.8 5.1 0-.4.5.1 1.1 1 .5 1 1.4 1.8 2 1.8 1.1 0 9.3 5.2 9.7 6.2.2.5 1 .8 1.8.8s1.4.5 1.4 1.1c0 .5.5.7 1 .4.6-.3 1-.2 1 .3s1.6 1.7 3.5 2.8c1.9 1 3.5 2.2 3.5 2.6 0 .5.4.8 1 .8.8 0 21.4 14.4 24.6 17.4 3.2 2.7 4.4 3.6 4.4 3.2 0-.3 1.1.5 2.4 1.7 1.3 1.2 3.7 3.2 5.3 4.4 3.2 2.4 9.2 7.3 10.9 8.8.7.5 3.3 2.8 5.9 5 2.6 2.2 6.3 5.5 8.1 7.2 1.9 1.8 3.4 3 3.4 2.7 0-.7 29.6 29.1 36.7 36.9 2.8 3.1 7.3 8.4 9.9 11.7 2.6 3.3 5 6 5.3 6 .4 0 1.5 1.3 2.4 3 1 1.6 2.3 3.5 3 4.2.7.7 3.2 4 5.7 7.3s5 6.6 5.7 7.3c.7.7 2 2.6 3 4.2.9 1.7 2.1 3 2.5 3 .4 0 .8.3.8.8 0 .4 4.2 7.2 9.4 15 5.2 7.9 9.8 15.2 10.1 16.2.4 1.1 1.1 2 1.6 2s.9.4.9.9c0 .4 2.3 4.7 5 9.5 2.8 4.8 5 9.1 5 9.6 0 .6.3 1 .8 1 .4 0 1.5 2 2.5 4.5 1.1 2.5 2.3 4.5 2.8 4.5.4 0 .6.7.3 1.5-.4.8-.2 1.5.2 1.5.5 0 1.5 1.5 2.3 3.2.8 1.8 3.3 7.2 5.7 12 2.4 4.9 4 8.8 3.6 8.8-.4 0-.2.4.3.8.6.4 3.6 6.8 6.6 14.2 4.7 11.4 7.2 17.8 14.5 37.5.4 1.1.6 2.3.6 2.7-.1.5.2.8.6.8.4 0 .8.8.9 1.7.1 1 2.4 9 5.2 17.8 2.8 8.8 5.3 16.9 5.6 18 .2 1.1 1.1 4.4 1.9 7.3.8 2.9 1.5 5.6 1.5 6 .1.4.6 2.3 1.1 4.2.5 1.9 1.1 4.8 1.4 6.5.2 1.6.5 3 .6 3 .2 0 .3.7 1.3 5.5 2.2 10.3 2.9 13.9 3.2 16.9.2 1.8.9 4.7 1.4 6.5.6 1.7 1.2 5.4 1.5 8.1.2 2.8.7 6.2 1 7.5.5 2.4.8 4.1 2.1 14.5.3 2.7.8 6.4 1 8.1 2.5 18.8 4.5 49.4 5 75.9.2 8.8.3 16.3.4 16.8.1.4 66.6.6 147.9.5l147.7-.3v-437.8c0-240.8-.2-438.1-.5-438.5-.3-.4-67-.7-148.3-.7-147 0-147.7 0-147.8 2-.1 1.1-.2 38.2-.4 82.5-.1 44.3-.3 81.3-.4 82.2-.1 1.7-.2 1.7-1.9 0-.9-.9-4-3.5-6.7-5.7s-5.9-4.8-7-5.8c-3.5-3.2-32.7-25.2-39.5-29.7-3.6-2.4-6.6-4.7-6.8-5.2-.2-.4-1-.8-1.8-.8s-1.4-.5-1.4-1c0-.6-.6-1-1.3-1-.8 0-2.2-.9-3.2-2s-2.2-2-2.6-2c-.4 0-5.4-3-11.1-6.7-5.7-3.7-12.1-7.6-14.3-8.7-2.2-1.1-4.6-2.6-5.3-3.3-.7-.7-2-1.3-2.8-1.3-.8 0-1.4-.5-1.4-1 0-.6-.4-1-.9-1s-3.8-1.6-7.3-3.7c-10.6-6.1-53.5-27.5-55.8-27.8-.3-.1-2.7-1.1-5.5-2.4-11.9-5.5-33.5-14.1-33.5-13.4 0 .3-.6.1-1.2-.5-1.1-.9-35.8-13-39.1-13.6-1.5-.3-9.8-2.6-11.5-3.1-.7-.3-1.6-.5-2-.6-.4-.1-1.7-.5-3-1-1.2-.5-3.3-1.1-4.5-1.3-1.2-.2-6.9-1.6-12.7-3-5.8-1.5-11.4-2.8-12.5-3.1-2.5-.5-16.4-3.3-19-3.8-1.1-.3-3.6-.7-5.5-1.1-1.9-.3-4.6-.8-6-1.1-4-.8-9.2-1.6-13.3-2-2.1-.2-4.6-.6-5.5-.9-1.5-.5-6-1.1-15.2-2.1-1.4-.2-2.5-.4-2.5-.5 0-.1-2-.4-4.5-.5-2.5-.2-4.5-.4-4.5-.5 0-.1-2.5-.3-5.5-.5s-5.5-.4-5.5-.5c0-.1-2.7-.4-6-.6-7.1-.6-12-1.1-12-1.3 0-.2-8.7-.6-36-1.6-16.6-.7-170.6-1.3-173.7-.7z"/></svg>